<?xml version="1.0" encoding="UTF-8"?>
<svg id="Capa_2" data-name="Capa 2" xmlns="http://www.w3.org/2000/svg" viewBox="0 0 346.9 87.74">
  <defs>
    <style>
      .cls-1 {
        fill: currentColor;
      }
    </style>
  </defs>
  <g id="Capa_8" data-name="Capa 8">
    <path id="LOGO_COLOR" data-name="LOGO +COLOR" class="cls-1" d="M1.16,87.54v-6.25h1.3v6.25h-1.3ZM281.36,75.03l.96-10.58c-2.83,3.3-6.43,5.92-10.83,7.9-5.17,2.28-11.4,3.42-18.76,3.42s-13.59-.98-18.33-2.95c-2.67-1.12-5.01-2.58-7-4.44l-.59,6.45h-46.95l.9-10.03c-2.77,3.13-6.29,5.66-10.54,7.55-5.15,2.28-11.38,3.42-18.76,3.42s-13.59-.98-18.31-2.95c-4.7-1.97-8.38-5.07-11.05-9.28-.96,1.38-2.03,2.65-3.19,3.78-2.85,2.81-6.27,4.9-10.24,6.33-3.99,1.42-8.95,2.14-14.88,2.14-7.22,0-13.04-.88-17.46-2.58-4.42-1.75-8.1-4.8-11.03-9.18-1.71-2.54-2.81-5.51-3.32-8.91-.94-4.66-.71-10.32,2.42-18.46,1.81-4.11,4.5-7.55,8.06-10.32,6.27-4.88,14.75-7.33,25.44-7.33,8.36,0,14.81,1.4,19.35,4.19,3.22,1.99,5.76,4.74,7.61,8.22,1.4-1.81,3.07-3.44,4.97-4.9,6.49-4.99,15.12-7.49,25.88-7.49s19.35,2.46,24.91,7.37c1.24,1.1,2.34,2.32,3.26,3.62l.9-10.05h20.53l-3.7,41.35h20.55c-1.81-3.87-2.46-8.51-1.99-13.88.81-8.95,4.46-15.93,10.93-20.92,6.49-4.99,15.12-7.49,25.9-7.49s19.35,2.46,24.89,7.37c1.36,1.2,2.52,2.52,3.5,3.95l.92-10.38h34.33c6.35,0,11.19.45,14.45,1.36,3.3.9,5.86,2.56,7.71,5.01,1.83,2.44,2.58,5.41,2.28,8.91-.26,3.07-1.3,5.7-3.07,7.92-1.77,2.22-4.11,4.01-6.98,5.39-1.83.88-4.31,1.61-7.43,2.18,2.4.67,4.13,1.34,5.19,2.03.71.45,1.73,1.4,3.03,2.89,1.32,1.49,2.18,2.6,2.58,3.42l8.53,15.95h-23.26l-9.5-16.83c-1.2-2.18-2.32-3.58-3.36-4.25-1.4-.83-3.05-1.26-4.92-1.26h-1.81l-1.99,22.34h-20.69ZM304.99,42.26h8.67c.94,0,2.77-.24,5.51-.73,1.38-.24,2.56-.81,3.52-1.73.94-.94,1.47-1.99,1.57-3.19.16-1.79-.41-3.13-1.69-4.09-1.28-.96-3.78-1.44-7.55-1.44h-9.03l-1,11.19ZM240.68,47.49c-.51,5.56.39,9.52,2.65,11.94,2.28,2.42,5.58,3.64,9.85,3.64s7.94-1.2,10.54-3.56c2.63-2.38,4.23-6.63,4.78-12.76.47-5.17-.47-8.93-2.77-11.33-2.32-2.38-5.62-3.56-9.95-3.56s-7.55,1.2-10.28,3.62c-2.73,2.42-4.33,6.43-4.82,12.01h0ZM118.89,47.43c.35-3.83,1.2-7.31,2.58-10.4l-13.13,2.38c-.49-1.67-1.06-2.91-1.67-3.68-1.04-1.28-2.36-2.28-3.95-2.99-1.61-.69-3.42-1.04-5.47-1.04-4.64,0-8.34,1.55-11.09,4.62-2.1,2.3-3.36,5.92-3.78,10.83-.55,6.1.2,10.26,2.22,12.51,2.06,2.26,5.09,3.4,9.12,3.4s6.98-.92,9.16-2.75c2.16-1.81,3.85-4.46,5.07-7.92l11.13,2.83c-.37-2.38-.43-4.99-.18-7.79h0ZM139.41,47.49c-.49,5.56.39,9.52,2.67,11.94,2.28,2.42,5.56,3.64,9.85,3.64s7.92-1.2,10.54-3.56c2.63-2.38,4.23-6.63,4.78-12.76.45-5.17-.47-8.93-2.79-11.33-2.3-2.38-5.62-3.56-9.93-3.56s-7.57,1.2-10.28,3.62c-2.73,2.42-4.33,6.43-4.84,12.01h0ZM.04,51.24l.59-4.76c.49-3.74,3.99-6.8,7.79-6.8h12.45l1.24-12.86c.37-3.76,3.74-6.86,7.53-6.86h8.3c2.26,0,3.93,1.85,3.72,4.11l-1.51,15.61h15.73c2.28,0,3.93,1.83,3.64,4.07l-.61,4.76c-.49,3.74-3.99,6.82-7.79,6.82h-12.45l-1.24,12.84c-.35,3.76-3.74,6.86-7.51,6.86h-8.32c-2.26,0-3.93-1.85-3.72-4.11l1.51-15.59H3.66c-2.28,0-3.93-1.85-3.62-4.09H.04ZM6.69,6.74c.81,0,1.42-.18,1.81-.55.39-.39.61-.85.67-1.47.04-.57-.1-1.04-.43-1.4s-.9-.55-1.71-.55h-2.69l-.33,3.97h2.67ZM.63,13.23L1.64,1.63c.04-.65.63-1.18,1.28-1.18h4.76c.67,0,1.24.1,1.75.33s.94.55,1.28.94c.35.41.59.87.75,1.38.16.53.22,1.1.16,1.71-.06.61-.2,1.18-.45,1.71-.24.51-.59.96-1,1.32-.41.39-.88.67-1.42.88-.55.22-1.16.33-1.81.33h-3.13l-.33,3.7c-.06.65-.63,1.18-1.28,1.18h-.96c-.37,0-.65-.31-.63-.69h0ZM48.53,13.23l1.02-11.6c.04-.65.63-1.18,1.28-1.18h.96c.37,0,.65.31.61.67l-1,11.62c-.06.65-.63,1.18-1.28,1.18h-.96c-.37,0-.65-.31-.63-.69h0ZM97.39,13.25l-4.62-8.38-.67,7.88c-.06.65-.63,1.18-1.3,1.18h-.73c-.39,0-.65-.31-.63-.69l1-11.6c.06-.65.65-1.18,1.3-1.18h1.38c.22,0,.41.1.51.24.08.12.02.02.24.39l4.27,8.04.63-7.49c.06-.65.65-1.18,1.3-1.18h.75c.39,0,.67.31.63.67l-1,11.62c-.06.65-.63,1.18-1.3,1.18h-1c-.22,0-.41-.1-.51-.24-.1-.12,0,0-.26-.43h0ZM142.17,13.23l.9-10.44h-3.38c-.39,0-.65-.31-.63-.67l.04-.49c.06-.65.63-1.18,1.3-1.18h9.08c.39,0,.67.31.63.67l-.04.49c-.06.65-.63,1.18-1.3,1.18h-2.89l-.85,9.95c-.04.65-.63,1.18-1.28,1.18h-.96c-.37,0-.65-.31-.61-.69h0ZM197.08.45h1c.39,0,.67.31.63.67l-.71,8.32c-.14,1.63-.73,2.87-1.77,3.7-1.04.83-2.42,1.24-4.21,1.24-1.63,0-2.89-.39-3.78-1.18-.88-.77-1.26-1.99-1.12-3.6l.69-7.98c.06-.65.63-1.18,1.3-1.18h.98c.39,0,.65.31.63.67l-.71,8.22c-.06.83.08,1.51.47,1.97.37.49.94.73,1.71.73,1.81,0,2.79-.88,2.93-2.6l.67-7.81c.06-.65.63-1.18,1.3-1.18h0ZM239.4,2.77l-.31,3.6h3.52c.75,0,1.3-.16,1.65-.51.35-.33.53-.75.57-1.28.06-.53-.06-.96-.35-1.3-.26-.33-.75-.51-1.47-.51h-3.62ZM243.61,13.23l.24-2.77c.04-.65-.06-1.12-.33-1.4-.28-.26-.83-.41-1.63-.41h-3.01l-.35,4.09c-.06.65-.65,1.18-1.3,1.18h-.85c-.39,0-.67-.31-.63-.69l1-11.6c.06-.65.63-1.18,1.3-1.18h5.64c.63,0,1.18.1,1.67.28.49.2.92.47,1.24.81.35.35.59.75.73,1.24.16.49.2,1,.16,1.55-.06.73-.28,1.38-.69,1.95-.39.55-.92.96-1.59,1.18.59.18.98.49,1.2.88.2.39.28.98.22,1.77l-.22,2.63c-.06.65-.65,1.18-1.3,1.18h-.87c-.39,0-.67-.31-.63-.69h0ZM291.39,3.46h-.02l-2.18,5.37h3.42l-1.22-5.37ZM293.67,13.17l-.45-2.03h-4.97l-.67,1.61h0l-.04.04v.02h0v.02h-.02v.04l-.12.28c-.22.45-.67.77-1.18.77h-1.2c-.39,0-.67-.31-.63-.69h0l5.13-11.6h.02c.18-.39.12-.26.18-.39.2-.47.67-.79,1.18-.79h1.93c.28,0,.53.18.61.45t.02.06h0v.02h0v.02h0v.02h0l.02.02h0v.02h0v.02h0v.02h.02v.02h0l.08.33h0l2.85,10.72c.02.06.04.14.06.2.04.12.04.24.02.37-.06.65-.63,1.18-1.3,1.18h-.94c-.26-.04-.47-.22-.53-.47-.02-.06,0,0-.08-.28h0ZM342.41,4.11c-.06-.53-.26-.96-.61-1.24-.39-.33-1.04-.49-1.89-.49-1.61,0-2.44.53-2.54,1.63-.04.41.1.73.41,1,.33.26.83.49,1.55.65.85.2,1.59.39,2.2.57.63.18,1.18.39,1.69.61.31.12.57.26.81.45.24.18.45.43.61.69.16.26.28.59.35.98.08.37.1.83.04,1.38-.04.65-.22,1.22-.55,1.71-.31.51-.71.94-1.2,1.28-.49.35-1.06.61-1.69.79-.65.18-1.3.26-1.99.26-1.97,0-3.4-.39-4.33-1.14-.65-.53-1.06-1.26-1.2-2.18.04-.65.63-1.18,1.28-1.18h.79c.26,0,.49.14.57.35.02.12.04.22.06.33h0c.1.39.33.69.65.96.51.41,1.18.59,2.01.59s1.57-.16,2.06-.49c.49-.33.75-.75.81-1.3.02-.22,0-.43-.04-.61-.04-.18-.12-.35-.26-.49-.14-.16-.35-.28-.61-.41-.26-.1-.59-.22-1.02-.31-1.02-.22-1.89-.45-2.63-.67-.73-.22-1.32-.49-1.77-.83-.47-.33-.79-.73-.98-1.2-.18-.47-.26-1.08-.18-1.81.04-.55.18-1.08.43-1.55.24-.49.59-.92,1.04-1.28.45-.35,1-.63,1.63-.85.63-.2,1.38-.31,2.22-.31s1.53.1,2.16.31c.63.22,1.16.51,1.61.9.43.39.75.85.96,1.4.08.2.14.41.18.63h0c-.06.65-.63,1.18-1.3,1.18h-.75c-.24,0-.45-.12-.55-.31h0ZM15.36,87.54l-2.67-4.21v4.21h-1.22v-6.25h1.38l2.48,4.01v-4.01h1.22v6.25h-1.2ZM29.46,87.54l-2.67-4.21v4.21h-1.22v-6.25h1.38l2.48,4.01v-4.01h1.22v6.25h-1.2ZM42.61,86.63c.24,0,.45-.04.65-.12.22-.08.39-.22.55-.39.16-.18.28-.39.37-.67.08-.26.12-.59.12-.96,0-.73-.14-1.3-.43-1.69-.28-.37-.71-.57-1.26-.57s-.98.2-1.26.57c-.31.39-.45.96-.45,1.69s.14,1.28.45,1.63.71.51,1.26.51h0ZM42.61,87.74c-.96,0-1.71-.28-2.22-.83-.53-.57-.77-1.38-.77-2.44,0-.53.06-1,.18-1.42.14-.43.33-.77.59-1.06.26-.31.57-.53.94-.67.37-.16.79-.24,1.28-.24s.9.08,1.28.24c.37.14.67.37.94.67.24.28.43.65.57,1.08.12.41.2.9.2,1.42,0,1.08-.26,1.89-.77,2.44-.51.55-1.24.81-2.22.81h0ZM56.04,87.54l-2.12-6.25h1.38l1.36,4.38,1.36-4.38h1.34l-2.12,6.25h-1.22ZM69.34,82.68h0l-.81,2.48h1.61l-.79-2.48ZM70.89,87.54l-.39-1.3h-2.3l-.45,1.3h-1.38l2.24-6.25h1.51l2.2,6.25h-1.42ZM86.01,85.38c-.06.37-.18.69-.33.98-.16.28-.35.53-.57.73-.22.2-.49.37-.79.49-.31.1-.63.16-1,.16-.41,0-.79-.06-1.14-.2-.37-.14-.67-.35-.94-.63-.24-.26-.45-.61-.59-1.02-.16-.41-.22-.88-.22-1.4s.06-1.02.2-1.42c.12-.43.33-.79.57-1.08.24-.28.57-.51.92-.67.37-.16.77-.24,1.22-.24.39,0,.73.06,1.06.18.31.12.59.26.81.47.22.22.41.45.55.73.12.26.2.57.24.87h-1.3c-.1-.35-.26-.63-.51-.83-.26-.18-.53-.28-.85-.28-.55,0-.94.18-1.2.59-.26.39-.39.92-.39,1.61s.12,1.24.39,1.63c.24.39.63.57,1.14.57.39,0,.69-.1.94-.31.22-.22.39-.51.49-.92h1.3ZM94.82,87.54v-6.25h1.3v6.25h-1.3ZM108.07,86.63c.22,0,.45-.04.65-.12.2-.08.39-.22.55-.39.14-.18.26-.39.37-.67.08-.26.12-.59.12-.96,0-.73-.14-1.3-.43-1.69-.28-.37-.71-.57-1.26-.57s-.98.2-1.28.57c-.28.39-.43.96-.43,1.69s.14,1.28.45,1.63c.28.35.71.51,1.26.51h0ZM108.07,87.74c-.98,0-1.71-.28-2.24-.83-.51-.57-.77-1.38-.77-2.44,0-.53.06-1,.2-1.42.12-.43.33-.77.59-1.06.24-.31.57-.53.94-.67.37-.16.79-.24,1.28-.24s.9.08,1.26.24c.39.14.69.37.94.67.26.28.45.65.59,1.08.12.41.18.9.18,1.42,0,1.08-.24,1.89-.75,2.44-.51.55-1.26.81-2.22.81h0ZM123.88,87.54l-2.67-4.21v4.21h-1.22v-6.25h1.38l2.48,4.01v-4.01h1.22v6.25h-1.2ZM136.42,87.54v-6.25h4.6v1.08h-3.32v1.34h3.05v1.1h-3.05v1.61h3.46v1.12h-4.74ZM153.85,87.54l-2.67-4.21v4.21h-1.22v-6.25h1.38l2.48,4.01v-4.01h1.22v6.25h-1.2ZM167.67,82.37v1.67h1.63c.37,0,.61-.08.75-.24.14-.16.2-.35.2-.59s-.06-.45-.2-.61c-.14-.14-.37-.22-.69-.22h-1.69ZM170.03,87.54v-1.63c0-.28-.06-.51-.2-.63-.14-.14-.39-.2-.77-.2h-1.38v2.46h-1.28v-6.25h3.17c.28,0,.55.04.79.12.22.1.43.22.61.39.16.16.28.35.39.57.08.22.14.47.14.71,0,.35-.08.65-.24.9-.16.26-.39.45-.69.57.26.08.47.2.59.39.1.18.16.47.16.83v1.77h-1.28ZM180.37,87.54v-6.25h4.6v1.08h-3.32v1.34h3.05v1.1h-3.05v1.61h3.46v1.12h-4.74ZM199.44,85.38c-.08.37-.18.69-.33.98-.16.28-.35.53-.57.73-.24.2-.51.37-.79.49-.31.1-.65.16-1,.16-.43,0-.79-.06-1.16-.2-.35-.14-.65-.35-.92-.63-.24-.26-.45-.61-.61-1.02-.14-.41-.2-.88-.2-1.4s.06-1.02.2-1.42c.12-.43.33-.79.57-1.08.24-.28.55-.51.92-.67.37-.16.77-.24,1.2-.24s.75.06,1.06.18c.33.12.59.26.83.47.22.22.41.45.53.73.14.26.22.57.26.87h-1.32c-.08-.35-.24-.63-.49-.83-.26-.18-.55-.28-.85-.28-.55,0-.96.18-1.2.59-.26.39-.39.92-.39,1.61s.12,1.24.37,1.63c.26.39.65.57,1.16.57.39,0,.69-.1.94-.31.22-.22.39-.51.47-.92h1.32ZM211.93,81.29h1.34v4.15c0,.77-.22,1.34-.67,1.73-.45.39-1.08.57-1.89.57s-1.36-.18-1.81-.55c-.45-.37-.65-.92-.65-1.67v-4.23h1.32v4.11c0,.39.08.69.28.92s.47.35.83.35c.83,0,1.24-.41,1.24-1.22v-4.15ZM225.22,86.46c.28,0,.53-.08.69-.24.18-.18.26-.39.26-.65s-.08-.47-.24-.59c-.18-.12-.41-.18-.69-.18h-1.69v1.67h1.67ZM223.55,82.37v1.34h1.65c.53,0,.79-.22.79-.67,0-.24-.06-.41-.2-.51-.14-.12-.35-.16-.67-.16h-1.57ZM222.29,87.54v-6.25h3.07c.63,0,1.1.14,1.4.45.33.31.49.71.49,1.24,0,.26-.08.51-.22.73-.14.2-.33.35-.53.45.12.04.24.1.37.18.1.08.2.18.31.31.08.12.14.26.2.43.04.16.06.37.06.59,0,.57-.18,1.02-.57,1.36-.39.33-.98.51-1.75.51h-2.83ZM237.51,82.37v1.67h1.65c.35,0,.59-.08.73-.24.14-.16.22-.35.22-.59s-.06-.45-.2-.61c-.14-.14-.39-.22-.71-.22h-1.69ZM239.89,87.54v-1.63c0-.28-.06-.51-.2-.63-.14-.14-.41-.2-.77-.2h-1.4v2.46h-1.26v-6.25h3.17c.28,0,.55.04.77.12.24.1.45.22.61.39.18.16.31.35.39.57.1.22.14.47.14.71,0,.35-.08.65-.24.9-.16.26-.39.45-.69.57.28.08.49.2.59.39.12.18.18.47.18.83v1.77h-1.28ZM250.23,87.54v-6.25h1.3v6.25h-1.3ZM265.39,87.54v-4.29l-1.16,4.29h-1.3l-1.16-4.27v4.27h-1.22v-6.25h1.93l1.12,4.58,1.14-4.58h1.87v6.25h-1.22ZM275.62,87.54v-6.25h1.32v6.25h-1.32ZM285.96,87.54v-6.25h4.58v1.08h-3.32v1.34h3.05v1.1h-3.05v1.61h3.48v1.12h-4.74ZM303.38,87.54l-2.67-4.21v4.21h-1.22v-6.25h1.38l2.48,4.01v-4.01h1.24v6.25h-1.22ZM315.3,87.54v-5.17h-1.87v-1.08h5.07v1.08h-1.89v5.17h-1.3ZM329.99,86.63c.22,0,.45-.04.65-.12.2-.08.39-.22.55-.39.14-.18.26-.39.37-.67.08-.26.12-.59.12-.96,0-.73-.14-1.3-.43-1.69-.28-.37-.71-.57-1.26-.57s-.98.2-1.26.57c-.31.39-.45.96-.45,1.69s.14,1.28.45,1.63c.28.35.71.51,1.26.51h0ZM329.99,87.74c-.98,0-1.71-.28-2.22-.83-.53-.57-.79-1.38-.79-2.44,0-.53.08-1,.2-1.42.14-.43.33-.77.59-1.06.24-.31.57-.53.94-.67.37-.16.79-.24,1.28-.24s.9.08,1.28.24c.37.14.67.37.94.67.24.28.43.65.57,1.08.12.41.2.9.2,1.42,0,1.08-.26,1.89-.77,2.44-.51.55-1.26.81-2.22.81h0ZM345.46,83.13c-.02-.33-.14-.55-.35-.71s-.51-.24-.9-.24c-.75,0-1.12.26-1.12.77,0,.18.08.33.22.45.16.12.41.22.75.31.39.1.73.18,1.04.26.28.08.57.18.81.28.14.06.26.12.39.22.12.08.22.18.31.31.08.12.16.28.2.45.06.18.08.39.08.65,0,.28-.06.57-.18.79-.14.22-.31.43-.51.59-.22.16-.47.28-.75.37-.31.08-.61.12-.92.12-.92,0-1.61-.16-2.06-.53-.47-.35-.69-.88-.73-1.55h1.26c.02.31.14.57.41.75.24.18.57.26.94.26.43,0,.73-.06.96-.22.2-.14.31-.35.31-.61,0-.1,0-.18-.02-.26-.04-.1-.08-.16-.16-.24-.06-.06-.16-.12-.28-.18-.12-.04-.28-.1-.49-.14-.49-.1-.9-.2-1.24-.31-.35-.1-.63-.22-.85-.39-.22-.14-.41-.35-.51-.55-.1-.22-.16-.51-.16-.85,0-.24.06-.49.14-.71.1-.22.24-.43.43-.59.2-.16.45-.31.73-.39.28-.1.61-.16,1.02-.16.37,0,.71.06,1.02.16.28.08.55.22.77.41.2.18.39.39.49.65.12.24.18.53.2.83h-1.24Z"/>
  </g>
</svg>