<?xml version="1.0" encoding="UTF-8"?>
<svg id="Capa_2" data-name="Capa 2" xmlns="http://www.w3.org/2000/svg" viewBox="0 0 300 112.35">
  <defs>
    <style>
      .cls-1, .cls-2 {
        fill: #fff;
      }

      .cls-2 {
        fill-rule: evenodd;
      }
    </style>
  </defs>
  <g id="Capa_1-2" data-name="Capa 1">
    <g>
      <polygon class="cls-2" points="133.17 53.72 117.99 53.72 117.99 .67 133.1 .67 133.1 7.05 125.71 7.05 125.71 14.79 132.91 14.79 132.91 20.88 125.71 20.88 125.71 47.09 133.17 47.09 133.17 53.72"/>
      <path class="cls-2" d="M151.43,23.18v-12.02c0-3.63-.48-4.24-3.22-4.24s-3.28.8-3.28,4.24v32.04c0,3.7.45,4.37,3.28,4.37s3.22-.67,3.22-4.37v-12.31h7.46v12.31c0,9.85-2.01,11.19-10.68,11.19-9.15,0-11.03-1.34-11.03-11.19V11.16c0-9.76,2.23-11.16,11.03-11.16s10.68,1.34,10.68,11.16v12.02h-7.46Z"/>
      <path class="cls-2" d="M178.02,11.16c0-3.63-.48-4.24-3.28-4.24s-3.28.8-3.28,4.24v32.04c0,3.7.45,4.37,3.28,4.37s3.28-.83,3.28-4.37V11.16ZM185.8,43.2c0,9.85-1.94,11.19-11.06,11.19s-11.03-1.34-11.03-11.19V11.16c0-9.82,1.88-11.16,11.03-11.16s11.06,1.34,11.06,11.16v32.04Z"/>
      <path class="cls-2" d="M125.71,65.32v20.02h3.28c2.77,0,3.32-.67,3.32-4.3v-11.6c0-3.44-.29-4.11-3.32-4.11h-3.28ZM125.71,91.59v20.09h-7.72v-53.05h11c9.15,0,11.09,1.34,11.09,10.81v11.35c0,9.53-2.07,10.81-11.09,10.81h-3.28Z"/>
      <path class="cls-2" d="M151.75,69.09v24.45h6.54v-24.45c0-3.6-.54-4.21-3.28-4.21s-3.25.61-3.25,4.21h0ZM158.29,111.68v-11.83h-6.54v11.83h-7.49v-42.59c0-9.79,2.01-11.13,10.81-11.13s10.94,1.59,10.94,11.13v42.59h-7.72Z"/>
      <rect class="cls-1" x="171.71" y="58.63" width="7.72" height="53.05"/>
      <polygon class="cls-2" points="200.47 111.68 192.47 78.55 192.21 78.55 192.21 111.68 185.55 111.68 185.55 58.63 194.09 58.63 201.74 92.68 202 92.68 202 58.63 208.72 58.63 208.72 111.68 200.47 111.68"/>
      <polygon class="cls-2" points="231.9 65.07 226.1 65.07 226.1 111.68 218.38 111.68 218.38 65.07 212.55 65.07 212.55 58.63 231.9 58.63 231.9 65.07"/>
      <rect class="cls-1" x="235.86" y="58.63" width="7.72" height="53.05"/>
      <polygon class="cls-2" points="264.58 111.68 256.61 78.55 256.32 78.55 256.32 111.68 249.69 111.68 249.69 58.63 258.2 58.63 265.86 92.68 266.14 92.68 266.14 58.63 272.87 58.63 272.87 111.68 264.58 111.68"/>
      <path class="cls-2" d="M292.54,73.93v-4.85c0-3.6-.48-4.21-3.22-4.21s-3.32.8-3.32,4.21v32.04c0,3.51.48,4.37,3.32,4.37,1.82,0,2.87-.13,3.41-.26v-24.39h7.27v30.83c-1.28.26-4.78.67-10.68.67-9.15,0-11.03-1.94-11.03-11.22v-32.04c0-9.72,2.23-11.13,11.03-11.13s10.68,1.34,10.68,11.13v4.85h-7.46Z"/>
      <rect class="cls-1" y=".77" width="51.93" height="51.87"/>
      <rect class="cls-1" x="58.21" y="59.39" width="51.93" height="51.93"/>
      <rect class="cls-1" x="58.21" y=".7" width="51.93" height="51.93"/>
      <polygon class="cls-2" points="20.15 110.53 6.09 110.53 6.09 61.34 20.09 61.34 20.09 67.24 13.23 67.24 13.23 74.41 19.89 74.41 19.89 80.09 13.23 80.09 13.23 104.35 20.15 104.35 20.15 110.53"/>
      <path class="cls-2" d="M35.23,67.59v18.55h3.03c2.55,0,3.06-.64,3.06-3.99v-10.78c0-3.19-.26-3.79-3.06-3.79h-3.03ZM35.23,91.94v18.62h-7.17v-49.19h10.2c8.48,0,10.3,1.24,10.3,10.01v10.52c0,8.86-1.94,10.04-10.3,10.04h-3.03Z"/>
    </g>
  </g>
</svg>