<?xml version="1.0" encoding="UTF-8"?>
<svg id="Capa_2" data-name="Capa 2" xmlns="http://www.w3.org/2000/svg" viewBox="0 0 565.16 110.47">
  <defs>
    <style>
      .cls-1 {
        fill: #fff;
      }
    </style>
  </defs>
  <g id="Capa_1-2" data-name="Capa 1">
    <g>
      <path class="cls-1" d="M104.06,30.44c2.06-3.69,5.95-5.98,10.18-5.98h13.48s0,.59,0,.59l-18.55,28.36,19.61,28.95v.35s-13.81,0-13.81,0c-4.05,0-7.81-2.1-9.93-5.55l-7.34-11.94-7.23,11.89c-2.11,3.48-5.89,5.6-9.96,5.6h-13.89s0-.35,0-.35l19.73-28.95-18.67-28.36v-.59s13.48,0,13.48,0c4.23,0,8.12,2.29,10.18,5.98l6.35,11.39,6.36-11.39Z"/>
      <path class="cls-1" d="M260.89,59.08c.83,5.67,6.26,10.28,15.83,10.28,2.63,0,5.85-.35,8.89-1.31,4.3-1.36,8.99-.24,12.01,3.11l3.8,4.22c-6.26,6.14-16.31,8.63-25.05,8.63-21.15,0-32.73-12.41-32.73-31.08,0-17.72,11.93-30.13,30.96-30.13,19.85,0,32.85,12.41,29.19,36.28h-42.89ZM288.54,46.68c-.35-6.38-6.85-9.34-13.94-9.34-6.85,0-12.05,3.54-13.71,9.34h27.65Z"/>
      <path class="cls-1" d="M351.81,33.48c-2.94,3.73-7.86,5.51-12.4,4.13-2.25-.68-4.61-.97-7.27-.97-5.55,0-8.39,2.01-8.39,4.84,0,3.19,2.95,4.96,8.63,5.08,11.46.35,25.29,2.72,25.41,18.79.12,9.45-6.97,19.62-25.52,19.62-8.63,0-17.49-1.65-27.41-9.93l1.37-2.26c2.95-4.85,8.99-6.93,14.24-4.78,4.23,1.73,8.29,2.24,12.04,2.31,4.96.12,8.86-1.89,8.74-4.96,0-2.72-2.01-4.96-9.93-5.2-10.87-.47-24.46-4.96-24.46-18.67,0-13.23,12.53-18.79,25.17-18.79,8.98,0,16.19,2.25,22.33,7.56l-2.54,3.22Z"/>
      <path class="cls-1" d="M404.63,33.48c-2.94,3.73-7.86,5.51-12.4,4.13-2.25-.68-4.61-.97-7.27-.97-5.55,0-8.39,2.01-8.39,4.84,0,3.19,2.95,4.96,8.63,5.08,11.46.35,25.29,2.72,25.41,18.79.12,9.45-6.97,19.62-25.52,19.62-8.63,0-17.49-1.65-27.41-9.93l1.37-2.26c2.95-4.85,8.99-6.93,14.24-4.78,4.23,1.73,8.29,2.24,12.04,2.31,4.96.12,8.86-1.89,8.74-4.96,0-2.72-2.01-4.96-9.93-5.2-10.87-.47-24.46-4.96-24.46-18.67,0-13.23,12.53-18.79,25.17-18.79,8.98,0,16.19,2.25,22.33,7.56l-2.54,3.22Z"/>
      <path class="cls-1" d="M414.86,24.23v46.84c0,6.44,5.22,11.65,11.65,11.65h5.36s0-46.84,0-46.84c0-6.44-5.22-11.65-11.65-11.65h-5.36Z"/>
      <path class="cls-1" d="M436.95,53.65c0-17.61,12.53-30.6,31.9-30.6,19.5,0,32.02,13,32.02,30.6,0,17.61-12.17,30.37-32.02,30.37-19.73,0-31.9-12.76-31.9-30.37ZM483.63,53.65c0-7.33-4.49-15.36-14.77-15.36-10.16,0-14.65,8.03-14.65,15.36,0,7.33,4.37,15.24,14.65,15.24,10.4,0,14.77-7.56,14.77-15.24Z"/>
      <path class="cls-1" d="M166.71,23.4c-7.33,0-13.94,1.54-19.38,8.51-.61-4.27-4.27-7.44-8.58-7.44h-7.72s0,67.07,0,67.07h17.13s0-15.78,0-15.78c4.96,6.14,12.17,8.27,18.32,8.27,17.13,0,29.07-11.46,29.07-30.37,0-18.2-11.7-30.25-28.83-30.25ZM176.65,62.39c-7.31,10.97-28.26,7.21-28.26-8.74,0-11.11,8.04-15.01,15.72-15.01,12.11,0,17.31,11.73,12.54,23.75Z"/>
      <path class="cls-1" d="M18.08,65.7v-16.66s40.77,0,40.77,0v-16.19s-40.77,0-40.77,0v-15.95s31.59,0,31.59,0c6.44,0,11.65-5.22,11.65-11.65V0S0,0,0,0v82.71s43.59,0,43.59,0v-17.02s-25.51,0-25.51,0Z"/>
      <path class="cls-1" d="M233.47,23.04c-6.5,0-11.7,2.36-15.6,7.8-.76-3.71-4.02-6.38-7.81-6.38h-9.32s0,40.92,0,40.92h17.02s0-13.03,0-13.03c0-8.74,6.26-13.47,13.59-13.47,3.55,0,6.5.94,9.33,2.95l7.09-13.47c-4.13-3.67-8.74-5.32-14.3-5.32Z"/>
      <path class="cls-1" d="M565.16,51.76c0-22.69-11.23-28.83-24.34-28.83-7.09-.12-13.71,2.13-18.91,8.86-.33-4.2-3.84-7.45-8.06-7.45h-7.89s0,58.37,0,58.37h16.78s0-30.13,0-30.13c0-7.56,5.32-14.42,13.23-14.3,8.15,0,12.05,4.61,12.05,13.59v13.51s17.13,0,17.13,0v-13.62Z"/>
      <path class="cls-1" d="M51.33,65.7h-3.38s0,17.02,0,17.02h15.03s0-5.36,0-5.36c0-6.44-5.22-11.65-11.65-11.65Z"/>
      <path class="cls-1" d="M200.74,84.71h9.04c4.4,0,7.97-3.57,7.97-7.97v-7.1s-17.02,0-17.02,0v15.07Z"/>
      <path class="cls-1" d="M131.02,110.47h8.46c4.79,0,8.67-3.88,8.67-8.67v-6.01s-17.13,0-17.13,0v14.68Z"/>
      <path class="cls-1" d="M548.02,69.64v15.07s9.05,0,9.05,0c4.47,0,8.09-3.62,8.09-8.08v-6.98s-17.13,0-17.13,0Z"/>
      <path class="cls-1" d="M431.87,1.38h-9.04c-4.4,0-7.97,3.57-7.97,7.97v9.36s9.04,0,9.04,0c4.4,0,7.97-3.57,7.97-7.97V1.38Z"/>
    </g>
  </g>
</svg>