<?xml version="1.0" encoding="UTF-8"?>
<svg id="Capa_2" data-name="Capa 2" xmlns="http://www.w3.org/2000/svg" viewBox="0 0 329.64 256">
  <defs>
    <style>
      .cls-1, .cls-2 {
        fill: #fff;
      }

      .cls-2 {
        fill-rule: evenodd;
      }
    </style>
  </defs>
  <g id="Capa_1-2" data-name="Capa 1">
    <g>
      <g>
        <polygon class="cls-2" points="329.64 71.77 329.64 105.07 270.3 105.07 270.3 2.46 300.41 2.46 300.41 71.77 329.64 71.77"/>
        <rect class="cls-1" x="223.53" y="2.46" width="30.54" height="102.61"/>
        <path class="cls-2" d="M210.34,64.29l-.97,38.61c-3.28,1.64-6.56,2.88-9.82,3.68-3.28.82-6.56,1.22-9.84,1.22h-.15c-.23-5.61-2.44-10.64-6.43-14.62-3.11-3.11-6.85-5.11-10.98-5.97,1.03-2.52,1.56-5.28,1.56-8.27,0-8.43-5.53-17.43-21.01-17.43h-7.05c-.25-2.44-.36-4.96-.36-7.53,0-7.65,1.07-14.78,3.24-21.32,2.14-6.52,5.26-12.3,9.36-17.29,4.16-5.05,8.96-8.88,14.43-11.48,5.47-2.59,11.38-3.89,17.75-3.89,3.39,0,6.71.44,10.01,1.3,3.3.86,6.5,2.14,9.63,3.89v38c-2.75-3.22-5.53-5.64-8.41-7.23-2.84-1.62-5.87-2.4-9.02-2.4-4.9,0-8.87,1.87-11.84,5.59-2.99,3.7-4.5,8.66-4.5,14.83s1.43,10.85,4.29,14.41c2.84,3.62,6.69,5.41,11.48,5.41,2.88,0,5.83-.76,8.81-2.27,3.01-1.53,6.25-3.93,9.82-7.25Z"/>
        <path class="cls-2" d="M116.36,2.46h-33.46l-29.82,102.61h32.28l2.57-12.89h10.89c4.46-10.58,9.9-18.11,16.51-22.94,4.98-3.64,11.02-6.02,18.06-7.07v-.02L116.36,2.46ZM92.97,67.78l2.57-11.63c1.24-5.87,2.1-10.43,2.55-13.61.46-3.15.74-6.14.86-8.94h.51c.11,2.8.38,5.8.86,8.94.46,3.18,1.32,7.74,2.57,13.61l2.54,11.63h-12.47Z"/>
        <polygon class="cls-2" points="30.11 30.3 30.11 42.19 53.46 42.19 53.46 68.5 30.11 68.5 30.11 105.07 0 105.07 0 2.46 55.92 2.46 55.92 30.3 30.11 30.3"/>
      </g>
      <g>
        <path class="cls-1" d="M180.04,108.73c0,3.45-1.24,6.39-3.64,8.83-2.44,2.4-5.38,3.62-8.83,3.62s-6.41-1.22-8.81-3.62c-2.42-2.44-3.66-5.38-3.66-8.83s1.24-6.41,3.66-8.81c2.4-2.42,5.34-3.64,8.81-3.64s6.39,1.22,8.83,3.64c2.4,2.4,3.64,5.34,3.64,8.81Z"/>
        <path class="cls-1" d="M329.64,133.18c0,5.38-6.44,9.51-11.63,9.51h-77.12c-.74.9-1.58,1.81-2.52,2.73l-15.35,15.16,7.46,17.37.82,1.83c.65,1.51.97,2.94.97,4.37,0,2.69-1.18,5.17-3.55,7.32-2.36,2.17-4.98,3.28-7.93,3.28-3.51,0-6.29-2.14-8.35-6.46l-5.55-12.18-10.51,9.59-1.89,1.94c-3.57,3.68-7.09,5.59-10.75,5.59-.88,0-1.7.08-2.48.1v.11h-17.18c-.67.04-1.35.06-2.06.06h-14.26c-5.26,0-9.4-1.07-12.43-3.2-3.01-2.19-4.52-5.09-4.52-8.83,0-1.96.65-4.48,1.89-7.53l11.99-29.48h-33.98l-40.25,99.3c-3.37,8.16-8.03,12.26-14.01,12.26-2.61,0-4.86-.8-6.63-2.4-1.79-1.64-2.69-3.62-2.69-6.02,0-1.73.76-4.58,2.33-8.52l38.49-94.61H11.4c-7.61,0-11.4-2.61-11.4-7.82,0-3.7,1.32-6.6,4-8.68,2.65-2.06,6.39-3.09,11.15-3.09h80.65l11.42-28.08c3.83-9.32,8.39-15.94,13.75-19.85,5.36-3.93,12.53-5.89,21.49-5.89h10.24c7.65,0,11.48,2.63,11.48,7.89,0,3.78-1.35,6.69-4.04,8.81-2.69,2.08-6.43,3.11-11.19,3.11h-2.71c-5.03,0-9,1.01-11.88,3.07-2.9,2.02-5.38,5.43-7.32,10.31l-8.41,20.63h39.51c.72,0,1.43.04,2.1.1.5-.06,1.01-.1,1.54-.1,2.5,0,4.67.84,6.52,2.52,1.79,1.68,2.71,3.68,2.71,5.99,0,1.94-.8,4.84-2.42,8.81l-12.83,31.75h10.14c1.07,0,2.04.04,2.95.15h11.9c.17-.15.32-.34.48-.5l15.96-16.42-6.88-16.05c-1.14-2.69-1.72-4.79-1.72-6.27,0-2.9,1.18-5.45,3.55-7.78,2.36-2.29,4.98-3.43,7.93-3.43,3.58,0,6.41,2.46,8.45,7.44l4.84,11.65,10.14-11.46c4.46-5.09,8.66-7.63,12.55-7.63.32,0,.65,0,.97.04h85.46c5.17,0,7.17,4.14,7.17,9.51Z"/>
      </g>
    </g>
  </g>
</svg>