<?xml version="1.0" encoding="UTF-8"?>
<svg id="Capa_2" data-name="Capa 2" xmlns="http://www.w3.org/2000/svg" viewBox="0 0 481.19 129.13">
  <defs>
    <style>
      .cls-1 {
        fill: #fff;
      }
    </style>
  </defs>
  <g id="Capa_1-2" data-name="Capa 1">
    <g>
      <path class="cls-1" d="M240.52,129.11c-69.98,0-139.97,0-209.95,0-3.45,0-6.91.09-10.36-.2-1.68-.14-3.25-.64-4.82-1.14-2.87-.91-5.37-2.59-7.63-4.48-1.45-1.21-2.73-2.74-3.76-4.41-.35-.56-.75-1.1-1.11-1.65-.77-1.18-1.1-2.54-1.61-3.82C.11,110.49,0,107.45,0,104.39c0-26.83.02-53.66,0-80.49,0-3.02.38-5.97,1.44-8.8,1.06-2.82,2.63-5.36,4.67-7.58,2.45-2.67,5.39-4.65,8.75-5.98,2.21-.87,4.52-1.38,6.89-1.48,1.45-.06,2.91-.04,4.37-.05C169.67.01,313.22.01,456.77,0c2.17,0,4.35.07,6.45.6,3.07.77,5.95,2.02,8.49,3.97,2.69,2.07,4.94,4.5,6.53,7.52.71,1.35,1.34,2.72,1.84,4.17.76,2.23,1.04,4.53,1.05,6.86.03,4.12.04,8.24.04,12.35,0,22.92,0,45.84.01,68.76,0,1.96-.05,3.92-.36,5.84-.35,2.14-1.06,4.19-2.06,6.11-1.05,2.03-2.32,3.92-3.92,5.59-1.54,1.6-3.23,2.98-5.13,4.11-2.01,1.19-4.16,2.06-6.43,2.64-1.71.43-3.45.53-5.2.57-1.79.04-3.58.02-5.37.02-70.73,0-141.47,0-212.2,0h0ZM374.57,10.83c-2.35-.03-4.7-.11-7.04.05-.29,0-.58-.01-.87,0-9.36.13-18.72-.19-28.07.25-1.29.06-2.57-.17-3.85-.18-14.94-.04-29.88-.05-44.82-.06-.66-.15-1.33-.08-1.99-.08-88.26,0-176.53,0-264.79,0-.33,0-.67,0-1,0-.21,0-.41.04-.58.18-1.71.23-3.31.79-4.76,1.71-2.3,1.47-4,3.41-5.04,5.98-.72,1.79-.86,3.63-.86,5.49-.01,23.71,0,47.42,0,71.13,0,3.41,0,6.82,0,10.23,0,2.23.4,4.39,1.58,6.32,2.54,4.15,6.22,6.3,11.14,6.3,55.7,0,111.4,0,167.11,0,29.27,0,58.53-.14,87.8-.07,59.82.14,119.65.05,179.47.11,1.67,0,3.26-.32,4.71-1.01,4.76-2.27,7.5-6.04,7.51-11.37.06-27.33.02-54.66.04-81.99,0-2.52-.52-4.85-1.86-6.99-2.06-3.28-4.99-5.24-8.83-5.83-.5-.32-1.05-.17-1.58-.17-24.47,0-48.94,0-73.42,0-3.33,0-6.66.02-9.99.03Z"/>
      <g>
        <path class="cls-1" d="M37.7,38.56h21.64c4.02,7.99,8.06,16.02,12.09,24.05.84-8,1.59-15.95,1.32-24.02h16.48c-1.55,15.8-2.04,31.61-2.47,47.5h-21.45c-1.67-4.08-3.58-8.15-5.71-12.12-2.1-3.92-3.97-7.96-6.09-11.92-.42,8.02-1.23,15.97-1.21,24.05h-17.36c1.53-15.8,2.14-31.62,2.76-47.54Z"/>
        <path class="cls-1" d="M132.31,45.85h13.27c1.03,7.48,2.07,14.98,3.11,22.49.07,0,.15,0,.22,0,1.94-7.5,3.87-14.99,5.81-22.51h15.26c1.26,7.72,2.51,15.45,3.79,23.28.61-.65.69-1.46.82-2.15.27-1.52.76-2.97,1.11-4.46.7-2.98,1.55-5.93,2.3-8.9.65-2.57,1.26-5.15,2.02-7.75h12.93c-.35,1.28-.69,2.54-1.05,3.79-1.11,3.85-2.23,7.7-3.36,11.55-.74,2.54-1.51,5.08-2.24,7.62-1,3.46-1.96,6.93-2.96,10.39-.4,1.39-.83,2.78-1.25,4.17-.27.91-.53,1.82-.81,2.75h-16.9c-.43-1.4-.39-2.82-.64-4.21-.53-2.98-.97-5.98-1.41-8.98-.4-2.71-.76-5.42-1.14-8.13-.06-.41-.09-.83-.38-1.25-1.97,7.54-3.92,15.03-5.89,22.56h-15.84c-.35-.59-.37-1.27-.46-1.91-.48-3.28-1.08-6.55-1.64-9.82-.7-4.13-1.33-8.27-2.02-12.4-.49-2.91-1.09-5.79-1.51-8.71-.35-2.46-1.01-4.87-1.14-7.43Z"/>
        <path class="cls-1" d="M419.33,68.07c0,2.03-.38,3.87-.28,5.9,7.63-.08,15.23.26,22.92-.56-.04,4.27-.18,8.45-.47,12.68h-41.43c1.48-15.79,2.27-31.58,2.36-47.49h41.44c-.24,4.15-.18,8.28-.51,12.48-3.9-.32-7.71-.66-11.54-.62-3.82.04-7.64,0-11.5,0-.13,1.97-.37,3.81-.36,5.82,6.42.11,12.8.03,19.34-.39-.2,4.16-.39,8.17-.59,12.34-3.21-.06-6.39-.14-9.57-.17-3.2-.03-6.4,0-9.81,0Z"/>
        <path class="cls-1" d="M288.88,87.04c-4.29.01-7.9-.3-11.36-1.42-4.62-1.49-8.52-4.03-11.14-8.24-1.44-2.33-2.13-4.91-2.53-7.61-.47-3.18-.13-6.32.59-9.39.6-2.57,1.71-5.04,3.35-7.1,1.87-2.35,4.18-4.3,6.99-5.55,2.36-1.05,4.78-1.89,7.32-2.3,3.38-.55,6.78-.62,10.19-.37,2.11.15,4.2.44,6.26.97,4.98,1.29,9.24,3.69,12.16,8.03,1.86,2.77,2.78,5.91,2.88,9.25.07,2.36.08,4.72-.44,7.07-1.16,5.22-3.91,9.34-8.31,12.34-2.54,1.73-5.36,2.81-8.34,3.51-2.73.64-5.5.78-7.62.81ZM279.91,66.59c-.11,1.1.1,2.18.35,3.21.45,1.84,1.41,3.41,3.08,4.47,2.07,1.32,4.36,1.65,6.7,1.3,3.86-.57,5.74-2.76,6.66-5.85.78-2.62.82-5.34.05-7.99-.51-1.78-1.53-3.26-3.18-4.26-1.91-1.16-3.99-1.38-6.13-1.16-3.16.32-5.35,1.96-6.59,4.93-.72,1.74-.78,3.54-.95,5.35Z"/>
        <path class="cls-1" d="M230.39,70.96c-.62,4.98-.39,10.01-.5,15.01-.91.25-14.08.34-16.41.11,1.48-13.33,1.8-26.73,2.08-40.21h16.28c-.36,4.43-.74,8.81-.94,13.31,4.06.14,8.07.18,12.23,0,.05-4.43.39-8.85.21-13.34h16.24c-1.06,13.4-1.72,26.8-2.01,40.28h-16.18c.37-5.08,1.01-10.06.99-15.06-1.17-.44-10.07-.51-11.98-.1Z"/>
        <path class="cls-1" d="M319.34,45.78h15.85c-.05.65-.09,1.25-.16,1.85-.21,1.86-.33,3.72-.42,5.59-.15,3.36-.43,6.72-.66,10.08-.17,2.53-.3,5.06-.17,7.6.09,1.87,1.02,3.12,2.77,3.68,2.02.65,4.78.24,5.89-2.14.54-1.16.82-2.44.89-3.73.25-4.4.45-8.8.74-13.2.2-3.03.29-6.06.28-9.1,0-.16.03-.32.06-.55h15.54c.23.54.06.98,0,1.42-.35,2.64-.66,5.27-.74,7.94-.09,2.91-.36,5.81-.52,8.71-.13,2.37-.35,4.72-.38,7.1-.03,2.79-.41,5.54-1.48,8.16-.83,2.06-2.4,3.44-4.25,4.52-3.17,1.85-6.67,2.62-10.28,2.98-1.82.18-3.65.26-5.48.26-3.34,0-6.66-.26-9.82-1.32-3.38-1.14-6.27-3.01-7.81-6.43-.63-1.39-.9-2.88-.85-4.41.08-2.62.21-5.23.3-7.85.16-4.2.32-8.39.45-12.59.08-2.62.13-5.24.19-7.86,0-.2.04-.4.07-.73Z"/>
        <path class="cls-1" d="M126.84,60.54c-.16,3.53-.31,6.92-.48,10.49-5.46-.19-10.85-.17-16.28-.15-.29,1.63-.31,3.2-.43,4.95,6.52.05,12.98.12,19.57-.45-.31,3.66-.25,7.18-.41,10.73h-35.22c1.19-13.4,1.98-26.75,1.95-40.23h35.13c.08,3.47-.17,6.97-.33,10.61-3.29-.35-6.51-.56-9.74-.54-3.24.02-6.48,0-9.79,0-.15,1.67-.4,3.25-.3,4.93,5.41.17,10.76-.06,16.32-.34Z"/>
        <path class="cls-1" d="M394.31,46.67c.16,3.7.62,7.36.96,11.08-1.75-.23-3.3-.87-4.93-1.08-2.01-.26-4.02-.76-6.05-.2-.28.08-.59.11-.82.26-.86.55-1.29,1.31-.61,2.29.84,1.23,2.04,2.06,3.22,2.9,2.05,1.47,4.15,2.87,6.09,4.5,3.94,3.29,4.78,7.71,3.32,12.1-.95,2.85-2.92,4.75-5.49,6.09-2.99,1.57-6.28,1.98-9.59,2.33-4.01.43-7.97-.09-11.93-.56-1.39-.16-2.76-.54-4.24-.85-.3-4.06-.61-8.15-.92-12.35,1.55.49,2.99.96,4.44,1.4,2.15.64,4.34,1.11,6.6,1.09.76,0,1.48-.18,2.17-.48,1.06-.47,1.28-1.2.66-2.19-.85-1.37-2.13-2.31-3.37-3.28-2.43-1.91-4.96-3.71-7.05-6.02-.89-.98-1.69-2.01-2.26-3.24-1.73-3.73-.77-8.26,2.35-10.96,2.56-2.21,5.57-3.33,8.8-4.03,1.8-.39,3.64-.35,5.47-.36,3.53-.01,7.06.19,10.53.95.84.18,1.75.06,2.66.57Z"/>
      </g>
    </g>
  </g>
</svg>