<?xml version="1.0" encoding="UTF-8"?>
<svg id="Capa_2" data-name="Capa 2" xmlns="http://www.w3.org/2000/svg" viewBox="0 0 567.58 208.72">
  <defs>
    <style>
      .cls-1 {
        fill: #fff;
      }
    </style>
  </defs>
  <g id="Capa_1-2" data-name="Capa 1">
    <g>
      <path class="cls-1" d="M35.03,104.05c19.5,0,31.62-11.03,31.62-28.77s-12.12-28.77-31.62-28.77H0v6.33h6.58c1.79,0,3.09,1.3,3.09,3.09v64.87c0,1.71-1.39,3.09-3.09,3.09H0v6.33h31.37v-6.33h-10.24v-19.84h13.9ZM21.13,52.84h13.9c12.09,0,19.03,8.18,19.03,22.44s-6.94,22.44-19.03,22.44h-13.9v-44.88Z"/>
      <path class="cls-1" d="M147.71,126.69l1.25-1.43-3.65-3.65-1.38.92h0s-2.97,1.94-5.7,1.94c-3.45,0-6.94-2.22-10.42-6.7l-7.77-8.64c-1.88-2.1-3.9-5.59-6.01-7.02-.23-.16-.46-.31-.67-.45,16.11-2.75,27.29-13.48,27.29-26.95,0-16.61-13-28.2-31.62-28.2h-35.03v6.33h6.58c1.71,0,3.09,1.39,3.09,3.09v64.87c0,1.71-1.39,3.09-3.09,3.09h-6.58v6.33h30.8v-6.33h-9.67v-21.55h2.13c3.28,0,6.21,3.67,9.82,8.31l9.64,11.39c5.18,6.65,11.1,9.89,18.1,9.89,8.21,0,12.72-5.03,12.91-5.25ZM105.21,96.58h-10.1v-43.74h13.91c11.74,0,19.03,8.38,19.03,21.87,0,14.2-11.76,21.87-22.83,21.87Z"/>
      <path class="cls-1" d="M224.83,109.67h-5.45l-.85,5.11c-.96,5.77-2.99,9.12-10.52,9.12h-29.84v-36.34h20.98v10.24h5.77v-26.82h-5.77v4.87c0,3.39-2.55,5.94-5.94,5.94h-15.04v-28.95h26.99c7.53,0,9.56,3.34,10.52,9.12l.85,5.11h5.45v-20.56h-64.94v6.33h6.58c1.71,0,3.09,1.39,3.09,3.09v64.87c0,1.71-1.39,3.09-3.09,3.09h-6.58v6.33h67.79v-20.56Z"/>
      <path class="cls-1" d="M308.72,123.9h-5.44v6.33h29.09v-6.33h-9.1V52.84h9.1v-6.33h-21.6l-27.66,67.26-27.66-67.26h-22.16v6.33h6.58c1.71,0,3.09,1.39,3.09,3.09v62.03c0,4.49-1.3,5.94-5.37,5.94h-4.3v6.33h25.68v-6.33h-9.67v-61.69l28.48,69.16h5.56l28.48-69.16v58.6c0,1.71-1.39,3.09-3.09,3.09Z"/>
      <path class="cls-1" d="M372.59,52.84v-6.33h-30.23v6.33h6.58c1.71,0,3.09,1.39,3.09,3.09v64.87c0,1.71-1.39,3.09-3.09,3.09h-6.58v6.33h30.23v-6.33h-9.1V52.84h9.1Z"/>
      <path class="cls-1" d="M435.67,52.84h9.67v47.48c0,15.12-8.79,25.29-21.87,25.29s-21.87-10.59-21.87-26.99v-45.77h9.1v-6.33h-30.23v6.33h6.58c1.71,0,3.09,1.39,3.09,3.09v43.13c0,19.35,13.24,32.87,32.19,32.87s29.34-12.25,29.34-32.76v-40.4c0-4.55,1.25-5.94,5.37-5.94h4.3v-6.33h-25.68v6.33Z"/>
      <path class="cls-1" d="M567.58,52.84v-6.33h-21.6l-27.66,67.26-27.66-67.26h-22.17v6.33h6.58c1.71,0,3.09,1.39,3.09,3.09v62.03c0,4.49-1.3,5.94-5.37,5.94h-4.3v6.33h25.68v-6.33h-9.67v-61.69l28.48,69.16h5.56l28.48-69.16v58.6c0,1.71-1.39,3.09-3.09,3.09h-5.44v6.33h29.09v-6.33h-9.1V52.84h9.1Z"/>
      <path class="cls-1" d="M124.51,11.23h3.51c.21,0,.38-.04.58-.05l3.19,4.58h3.11l-3.59-5.12c.08-.03.17-.04.25-.08.98-.44,1.74-1.07,2.27-1.89.53-.81.8-1.79.8-2.93s-.27-2.14-.8-2.97c-.53-.83-1.29-1.46-2.27-1.9-.98-.44-2.16-.65-3.54-.65h-6.39v15.53h2.88v-4.53ZM130.75,3.47c.64.54.97,1.3.97,2.27s-.32,1.74-.97,2.29c-.64.55-1.6.82-2.87.82h-3.37V2.66h3.37c1.27,0,2.23.27,2.87.81Z"/>
      <polygon class="cls-1" points="158.37 13.32 149.61 13.32 149.61 9.06 157.11 9.06 157.11 6.68 149.61 6.68 149.61 2.66 158.06 2.66 158.06 .22 146.72 .22 146.72 15.76 158.37 15.76 158.37 13.32"/>
      <path class="cls-1" d="M171.72,13.71c.75.73,1.62,1.28,2.63,1.68s2.11.59,3.31.59c1.29,0,2.46-.22,3.51-.67,1.05-.44,1.94-1.1,2.66-1.95l-1.86-1.75c-.58.62-1.21,1.08-1.91,1.39-.69.3-1.44.46-2.24.46s-1.56-.13-2.23-.4c-.67-.27-1.26-.64-1.75-1.13-.5-.49-.88-1.07-1.17-1.73-.28-.67-.42-1.4-.42-2.2s.14-1.53.42-2.2c.28-.67.67-1.24,1.17-1.73.5-.49,1.08-.87,1.75-1.13.67-.27,1.42-.4,2.23-.4s1.55.15,2.24.46c.7.3,1.33.76,1.91,1.37l1.86-1.75c-.73-.86-1.61-1.51-2.66-1.94-1.05-.44-2.21-.66-3.48-.66-1.2,0-2.3.2-3.31.59-1.01.39-1.89.95-2.64,1.68-.75.73-1.34,1.57-1.75,2.53-.41.96-.62,2.03-.62,3.2s.21,2.23.62,3.2c.41.96.99,1.81,1.74,2.53Z"/>
      <path class="cls-1" d="M202.11,15.98c2.13,0,3.8-.6,5-1.8,1.21-1.2,1.81-2.94,1.81-5.21V.22h-2.84v8.65c0,1.6-.34,2.76-1.02,3.48-.68.73-1.65,1.09-2.91,1.09s-2.23-.36-2.92-1.09c-.69-.72-1.03-1.89-1.03-3.48V.22h-2.88v8.74c0,2.28.6,4.02,1.81,5.21,1.21,1.2,2.87,1.8,4.98,1.8Z"/>
      <path class="cls-1" d="M234.1,14.65c1.01-.74,1.52-1.78,1.52-3.11,0-.9-.2-1.66-.6-2.26-.4-.61-.95-1.07-1.64-1.39-.19-.09-.4-.13-.6-.19.61-.32,1.11-.75,1.49-1.32.38-.59.58-1.29.58-2.12,0-1.23-.49-2.21-1.46-2.94-.98-.73-2.39-1.1-4.24-1.1h-7.3v15.53h7.74c2,0,3.5-.37,4.52-1.11ZM228.81,2.49c.99,0,1.76.18,2.31.53.55.36.82.9.82,1.62s-.27,1.24-.82,1.6c-.55.36-1.32.53-2.31.53h-4.08V2.49h4.08ZM224.73,13.49v-4.48h4.68c1.07,0,1.89.18,2.46.54.58.36.87.93.87,1.7s-.29,1.35-.87,1.71c-.58.36-1.4.53-2.46.53h-4.68Z"/>
      <path class="cls-1" d="M250.49,11.23h3.51c.21,0,.38-.04.58-.05l3.19,4.58h3.11l-3.59-5.12c.08-.03.17-.04.25-.08.98-.44,1.74-1.07,2.27-1.89.53-.81.8-1.79.8-2.93s-.27-2.14-.8-2.97c-.53-.83-1.29-1.46-2.27-1.9-.98-.44-2.16-.65-3.54-.65h-6.39v15.53h2.88v-4.53ZM256.74,3.47c.64.54.97,1.3.97,2.27s-.32,1.74-.97,2.29c-.64.55-1.6.82-2.87.82h-3.37V2.66h3.37c1.27,0,2.23.27,2.87.81Z"/>
      <rect class="cls-1" x="272.7" y=".22" width="2.88" height="15.53"/>
      <polygon class="cls-1" points="291.41 5.6 296.52 14 297.82 14 302.91 5.44 302.91 15.76 305.68 15.76 305.64 .22 303.26 .22 297.2 10.52 291.03 .22 288.66 .22 288.66 15.76 291.41 15.76 291.41 5.6"/>
      <rect class="cls-1" x="318.73" y=".22" width="2.88" height="15.53"/>
      <polygon class="cls-1" points="346.33 13.32 337.57 13.32 337.57 9.06 345.07 9.06 345.07 6.68 337.57 6.68 337.57 2.66 346.02 2.66 346.02 .22 334.68 .22 334.68 15.76 346.33 15.76 346.33 13.32"/>
      <polygon class="cls-1" points="361.29 5.22 369.84 15.76 372.21 15.76 372.21 .22 369.37 .22 369.37 10.76 360.8 .22 358.43 .22 358.43 15.76 361.29 15.76 361.29 5.22"/>
      <polygon class="cls-1" points="388.43 15.76 391.32 15.76 391.32 2.66 396.47 2.66 396.47 .22 383.28 .22 383.28 2.66 388.43 2.66 388.43 15.76"/>
      <path class="cls-1" d="M408.56,13.69c.75.73,1.65,1.29,2.67,1.69,1.03.4,2.14.6,3.34.6s2.31-.2,3.33-.59,1.9-.95,2.65-1.68c.75-.72,1.33-1.57,1.74-2.54.41-.97.62-2.03.62-3.18s-.21-2.22-.62-3.2c-.41-.98-.99-1.82-1.74-2.54-.75-.72-1.63-1.27-2.65-1.67-1.02-.39-2.13-.59-3.33-.59s-2.33.2-3.35.6c-1.02.4-1.91.96-2.66,1.68-.75.72-1.34,1.56-1.75,2.53-.41.97-.62,2.03-.62,3.18s.21,2.19.62,3.16c.41.97,1,1.82,1.75,2.54ZM409.49,5.8c.28-.66.67-1.24,1.15-1.73.49-.5,1.07-.88,1.74-1.14.67-.27,1.4-.4,2.19-.4s1.51.13,2.16.4c.66.26,1.24.64,1.73,1.13.5.49.88,1.07,1.14,1.73.27.67.4,1.4.4,2.2s-.14,1.53-.41,2.2c-.27.67-.66,1.24-1.14,1.73-.49.49-1.06.87-1.72,1.13s-1.38.4-2.16.4-1.51-.13-2.19-.4c-.67-.27-1.25-.65-1.74-1.14-.49-.5-.87-1.08-1.15-1.74-.28-.67-.42-1.39-.42-2.17s.14-1.53.42-2.19Z"/>
      <path class="cls-1" d="M441.65,13.32c-.5.18-1.16.27-1.98.27-.96,0-1.9-.16-2.82-.49-.92-.33-1.69-.73-2.31-1.22l-1,2.24c.67.55,1.55,1,2.65,1.34,1.1.35,2.26.52,3.47.52,1.42,0,2.6-.21,3.53-.63.93-.42,1.62-.98,2.08-1.69.45-.7.68-1.47.68-2.3s-.17-1.48-.5-2.01c-.33-.52-.77-.95-1.32-1.26-.55-.32-1.15-.58-1.8-.78s-1.31-.37-1.98-.52c-.67-.15-1.27-.3-1.81-.47-.54-.16-.98-.39-1.31-.68-.33-.29-.5-.67-.5-1.14,0-.39.11-.74.34-1.06.23-.32.6-.57,1.1-.77.5-.19,1.15-.29,1.93-.29.68,0,1.39.1,2.13.3.74.2,1.46.51,2.15.92l.91-2.24c-.68-.44-1.48-.78-2.4-1.02-.92-.24-1.84-.36-2.77-.36-1.42,0-2.59.21-3.52.63-.92.42-1.61.98-2.06,1.69-.45.7-.68,1.48-.68,2.32s.17,1.51.5,2.04c.33.53.77.96,1.32,1.28.55.32,1.15.58,1.81.79.66.21,1.32.38,1.98.52.66.14,1.26.3,1.8.47.54.17.98.4,1.32.69.34.29.51.67.51,1.14,0,.39-.12.73-.36,1.03-.24.3-.61.54-1.11.72Z"/>
      <path class="cls-1" d="M180.76,203.71c-2.55.1-2.91-1.92-1.08-6.07,1.83-4.15,1.94-7.09.31-8.82-.78-.73-1.66-1.04-2.64-.91-.98.12-1.95.45-2.91,1-.97.54-1.82,1.08-2.57,1.6-.18.13-.34.24-.5.35-1,.68-1.98,1.39-2.93,2.14-.65.49-1.31.98-1.98,1.46-.08.07-.21.16-.38.29-.46.35-1.08.8-1.84,1.33-.77.54-1.55,1.04-2.34,1.5-.79.46-1.37.58-1.76.36-.38-.22-.14-1.29.74-3.22.87-1.93,2.2-3.96,3.98-6.1s4.47-5.6,8.09-10.37c3.61-4.78,5.49-8.14,5.63-10.08.14-1.95-.55-3.08-2.06-3.39-1.51-.31-3.89.34-7.14,1.94-4.57,2.34-8.91,5.09-13.02,8.25-4.12,3.15-8.08,6.54-11.9,10.14-3.81,3.61-7.55,7.26-11.21,10.97-.85.86-1.7,1.7-2.54,2.54,1.07-1.59,2.13-3.19,3.18-4.78,2.58-3.94,5.2-7.84,7.87-11.71,2.67-3.87,5.47-7.64,8.4-11.3.26.16.54.22.83.17.29-.05.54-.23.74-.55.84-1.44,1.65-2.9,2.42-4.38.19-.4.19-.76,0-1.11s-.47-.57-.83-.67c-.36-.1-.71.02-1.04.35-5.32,5.87-10.42,12.26-15.31,19.18-4.88,6.92-9.07,13.95-12.56,21.07,0,0-.02.02-.03.03-.03.05-.06.1-.08.16-.03.06-.05.12-.09.17-.03.06-.07.12-.1.18-.13.3-.12.56,0,.77.13.21.32.34.56.39.24.05.47-.03.69-.22.23,0,.45-.08.67-.27,2.29-2.17,4.57-4.34,6.85-6.52,5.83-5.68,11.81-11.18,17.94-16.5,6.13-5.32,12.71-10.1,19.74-14.34,2.41-1.4,3.94-1.98,4.6-1.74.66.24.74.99.25,2.24-.49,1.25-1.27,2.7-2.34,4.34-1.06,1.64-2.11,3.16-3.15,4.56-1.04,1.4-1.77,2.37-2.2,2.91-.65.84-1.44,1.79-2.35,2.86-1.28,1.47-2.57,3.06-3.88,4.77-1.31,1.71-2.4,3.44-3.26,5.19-.86,1.75-1.24,3.41-1.15,4.98.16,1.43.71,2.2,1.65,2.3.95.11,2.07-.18,3.39-.86,1.31-.68,2.61-1.49,3.88-2.44,1.28-.94,2.33-1.75,3.16-2.42.34-.28.62-.5.82-.65.02-.02.04-.04.08-.06.28-.22.84-.64,1.7-1.25s1.79-1.2,2.81-1.76c1.02-.57,1.9-.89,2.67-.96.76-.07,1.2.31,1.3,1.15.04,1.55-.49,3.69-1.59,6.4s-1.18,4.56-.25,5.54c.94.98,2.21,1.52,3.82,1.62.36,0,.61-.12.74-.36.13-.24.15-.5.07-.78-.08-.28-.27-.48-.57-.61Z"/>
      <path class="cls-1" d="M199.11,178.84c-.83.54-1.63,1.13-2.39,1.76-.25.23-.34.49-.27.78s.25.51.51.66c.27.15.55.13.85-.04.78-.45,1.6-.81,2.46-1.06.73-.25,1.45-.55,2.16-.91.33-.2.51-.48.55-.85.03-.37-.05-.69-.25-.98-.2-.29-.5-.43-.91-.4-.99.15-1.89.5-2.73,1.04Z"/>
      <path class="cls-1" d="M231.38,182.09c-.08.26-.05.53.08.81.08.29.27.52.55.72.39.23.78.32,1.2.25.41-.07.78-.25,1.11-.52.4-.38.56-.84.48-1.4-.08-.55-.36-.96-.82-1.23-.56-.24-1.09-.21-1.57.11-.49.31-.83.74-1.02,1.28Z"/>
      <path class="cls-1" d="M291.11,184.95c-1.94,1-3.44,1.76-4.51,2.27-1.07.52-2.04.92-2.91,1.21-.88.29-1.58.34-2.1.15-.52-.19-.58-.84-.16-1.94.11-.31.09-.57-.07-.79-.16-.21-.37-.36-.65-.43-.28-.07-.54-.05-.79.06-.12.05-.23.11-.33.19-.08.05-.15.1-.23.14-.08-.25-.25-.47-.53-.65-1.05-.63-2.26-.82-3.63-.57-1.37.25-2.68.8-3.94,1.66-.17.12-.33.25-.49.37-.47.27-.97.57-1.5.92-.78.5-1.68,1.05-2.69,1.62-1.01.58-2.18,1.14-3.52,1.7-.96.36-1.55.34-1.79-.05-.24-.39-.35-.94-.34-1.63,0-.37-.04-.73-.09-1.08-.05-.35-.17-.65-.33-.9-.49-.61-1.11-.81-1.85-.58s-1.47.63-2.19,1.21c-.72.58-1.32,1.1-1.79,1.56-.13.12-.24.22-.33.3-.86.77-1.48,1.19-1.88,1.25-.39.06-.65-.12-.77-.55-.12-.42-.2-.97-.25-1.63-.04-.86-.19-1.71-.44-2.54s-.81-1.38-1.67-1.67c-1.07-.24-2.24.01-3.51.77-1.27.76-2.54,1.74-3.8,2.95.09-.14.18-.27.26-.42.26-.42.52-.85.78-1.28.25-.5.25-.93-.01-1.29-.26-.37-.61-.57-1.06-.62-.45-.05-.83.16-1.15.61-.19.3-.38.58-.57.88-1.89,1.36-3.8,2.71-5.75,4.03-2.14,1.45-3.64,2.35-4.5,2.69-.86.34-1.58.51-2.17.49-.58-.02-.82-.39-.71-1.11.18-.82.56-1.59,1.14-2.32.57-.73,1.18-1.41,1.82-2.04.29-.29.55-.57.81-.84.35-.43.45-.85.29-1.27-.16-.42-.45-.71-.86-.86-.41-.16-.83-.05-1.25.31-.15.14-.33.34-.49.51-.06.03-.11.04-.17.09-.05.05-.11.1-.18.16-.76.73-1.81,1.67-3.18,2.82-1.36,1.15-2.87,2.21-4.52,3.19-1.65.97-3.28,1.56-4.89,1.76-1.29.1-2.28-.14-2.97-.72-.68-.58-1.15-1.35-1.39-2.3.95-.71,1.9-1.43,2.85-2.15.8-.59,1.65-1.16,2.56-1.71.97-.59,1.9-1.22,2.79-1.89.89-.67,1.65-1.45,2.26-2.34.15-.26.14-.49-.04-.7-.18-.21-.4-.29-.68-.25-1.14.28-2.23.78-3.28,1.47-1.04.7-2.04,1.44-2.99,2.22-.34.28-.67.54-.99.79-.68.53-1.35,1.07-2.01,1.62-.24.2-.49.4-.73.59,0-.95.1-1.84.28-2.68.08-.53-.06-.94-.41-1.22-.35-.28-.73-.4-1.15-.33-.42.07-.71.36-.87.88-.06.23-.1.47-.14.7-1.22.62-2.22,1.12-2.99,1.49-1.07.52-2.04.92-2.91,1.21-.88.29-1.58.34-2.1.15-.52-.19-.58-.84-.16-1.94.11-.31.09-.57-.07-.79-.16-.21-.37-.36-.65-.43-.28-.07-.54-.05-.79.06-.12.05-.23.11-.33.19-.08.05-.15.1-.23.14-.08-.25-.25-.47-.53-.65-1.05-.63-2.26-.82-3.63-.57-1.37.25-2.69.8-3.94,1.66-1.25.86-2.23,1.89-2.92,3.1-.69,1.2-.88,2.44-.57,3.72.34,1.13.91,1.72,1.72,1.79.81.07,1.75-.19,2.82-.8,1.07-.6,2.15-1.36,3.25-2.26,1.1-.9,2.1-1.76,3.01-2.59.03-.03.07-.07.11-.1.03,1.24.65,1.92,1.84,2.02s2.56-.19,4.1-.88c1.54-.69,2.96-1.41,4.24-2.16.16-.09.29-.17.44-.26-.05.87-.03,1.74.08,2.62-1.38,1.17-2.75,2.35-4.09,3.56-.18.17-.24.35-.18.55.05.2.17.35.35.45.18.1.37.1.58-.01,1.32-.83,2.6-1.7,3.84-2.6.39,1.02,1.03,1.86,1.9,2.49.87.64,2.04.97,3.49,1,1.75-.03,3.56-.52,5.43-1.47,1.66-.84,3.23-1.87,4.73-3.05-.38.92-.51,1.76-.36,2.54.18.94.69,1.56,1.54,1.86.85.3,1.89.27,3.12-.11,1.23-.37,2.82-1.27,4.78-2.69.04-.03.08-.06.11-.09,1.11-.81,2.19-1.63,3.25-2.49.36-.3.74-.58,1.11-.87-.34.52-.68,1.05-1.01,1.57-.13.2-.26.41-.39.63-.49.7-.92,1.44-1.28,2.23-.36.79-.43,1.59-.23,2.39.09.3.27.51.54.61.27.1.54.09.82-.06.79-.48,1.39-1.18,1.81-2.11.77-.65,1.54-1.31,2.29-1.98,1.09-.97,2.2-1.92,3.33-2.85,1.13-.92,2.31-1.77,3.56-2.55.13-.06.25.07.36.38.11.31.22.73.32,1.25.1.52.19,1.06.28,1.62.09.59.21,1.18.34,1.77.13.6.39,1.06.76,1.4.37.33.95.46,1.75.38.8-.08,1.58-.41,2.35-.99.77-.58,1.49-1.2,2.17-1.85.03-.02.05-.05.08-.07.99-.92,1.7-1.5,2.12-1.71.42-.22.66.04.7.77.04.73.08,1.32.13,1.77.04.45.19.84.45,1.16.26.32.72.48,1.37.48,1.04,0,2.37-.4,3.98-1.21,1.07-.53,2.09-1.13,3.08-1.76-.18.75-.2,1.51-.01,2.28.34,1.13.91,1.72,1.72,1.79.81.07,1.75-.19,2.82-.8,1.07-.6,2.15-1.36,3.25-2.26,1.1-.9,2.1-1.76,3.01-2.59.03-.03.07-.07.11-.1.03,1.24.65,1.92,1.84,2.02,1.19.1,2.56-.19,4.1-.88,1.54-.69,2.96-1.41,4.24-2.16,1.28-.75,2.21-1.34,2.77-1.77.18-.14.29-.33.32-.57.03-.24-.05-.46-.23-.65-.18-.19-.39-.24-.62-.14ZM193.49,189.87c-1.18.93-2.04,1.55-2.59,1.86-.55.31-.9.45-1.04.41-.15-.04-.16-.35-.03-.95s.56-1.3,1.29-2.11c.73-.81,1.59-1.39,2.55-1.74.97-.35,1.89-.38,2.78-.09-.79.82-1.77,1.7-2.95,2.63ZM274.35,189.87c-1.18.93-2.04,1.55-2.59,1.86-.55.31-.9.45-1.04.41-.15-.04-.16-.35-.03-.95s.56-1.3,1.29-2.11c.73-.81,1.59-1.39,2.55-1.74.97-.35,1.89-.38,2.78-.09-.79.82-1.77,1.7-2.95,2.63Z"/>
      <path class="cls-1" d="M380.48,162.01c-.15-.37-.4-.61-.74-.74-.35-.13-.68-.03-1,.31-3.08,3.58-6.03,7.26-8.84,11.04-2.81,3.78-5.56,7.61-8.23,11.52-.23.33-.47.68-.71,1.02-1.74.9-3.12,1.59-4.11,2.07-1.07.52-2.04.92-2.91,1.21-.88.29-1.58.34-2.1.15-.52-.19-.58-.84-.16-1.94.11-.31.09-.57-.07-.79-.16-.21-.37-.36-.65-.43-.28-.07-.54-.05-.79.06-.12.05-.23.11-.33.19-.08.05-.15.1-.23.14-.08-.25-.25-.47-.53-.65-1.05-.63-2.26-.82-3.63-.57-1.37.25-2.69.8-3.94,1.66-1.26.86-2.23,1.89-2.92,3.1-.07.12-.11.23-.16.35-2.61,2.23-5,4.2-7.18,5.89-2.08,1.61-3.97,2.98-5.66,4.1-4.01,2.66-7.19,4.21-9.52,4.66-2.34.45-4.12,0-5.36-1.35-1.23-1.35-1.63-3.48-1.18-6.4.46-2.3,1.24-4.56,2.33-6.78,1.09-2.22,2.23-4.32,3.42-6.3,3.42-5.76,7.63-10.86,12.64-15.31,1.86-1.54,3.88-2.86,6.05-3.94,1.43-.73,2.5-.87,3.22-.43.72.45,1.14,1.2,1.25,2.28.11,1.07-.02,2.18-.41,3.34-.35-.13-.7-.14-1.04-.02-.34.12-.58.4-.72.85-.02.03-.03.07-.04.11-.12.39-.2.71-.26.94-.05.23-.09.48-.09.72,0,.25,0,.59.01,1.02.06.63.34,1.07.83,1.31.49.24,1.01.17,1.54-.21.76-.67,1.46-1.8,2.13-3.39.66-1.59,1.1-3.39,1.31-5.39.22-2-.11-3.48-.96-4.44-.86-.96-2.57-1.13-5.13-.52-2.56.62-6.16,2.96-10.8,7.02-4.64,4.06-8.89,9.27-12.77,15.63-3.88,6.36-5.93,11.44-6.17,15.24-.24,3.8.89,6.57,3.39,8.32,2.69,1.38,6.04,1.2,10.08-.54,4.03-1.74,8.44-4.67,13.23-8.77,2.12-1.81,3.91-3.36,5.4-4.66.02.13.03.26.06.39.34,1.13.91,1.72,1.72,1.79.81.07,1.75-.19,2.82-.8,1.07-.6,2.15-1.36,3.25-2.26,1.1-.9,2.1-1.76,3.01-2.59.03-.03.07-.07.11-.1.03,1.24.65,1.92,1.84,2.02,1.19.1,2.56-.19,4.1-.88,1.44-.64,2.76-1.32,3.97-2.01-1.17,1.71-2.32,3.46-3.43,5.28-1.43,2.36-2.86,5.03-4.27,8.01-1.41,2.97-2.21,5.15-2.4,6.53-.03.21,0,.37.13.5s.26.18.43.18c.17,0,.31-.09.44-.26,1.73-2.72,2.88-4.58,3.44-5.58.57-1,1.66-2.91,3.28-5.73,1.77-3.34,3.66-6.59,5.66-9.75,5.51-8.5,11.56-16.59,18.15-24.27.29-.38.35-.75.21-1.11ZM344.59,189.87c-1.18.93-2.04,1.55-2.59,1.86-.55.31-.9.45-1.04.41-.15-.04-.16-.35-.03-.95.13-.6.56-1.3,1.29-2.11.73-.81,1.59-1.39,2.55-1.74.97-.35,1.9-.38,2.78-.09-.79.82-1.77,1.7-2.95,2.63Z"/>
      <path class="cls-1" d="M372.94,180.81c-.49.31-.83.74-1.02,1.28-.08.26-.05.53.08.81.08.29.27.52.55.72.39.23.78.32,1.2.25.41-.07.78-.25,1.11-.52.4-.38.56-.84.48-1.4-.08-.55-.36-.96-.82-1.23-.56-.24-1.09-.21-1.57.11Z"/>
      <path class="cls-1" d="M408.61,162.65c.24-.35.3-.7.16-1.03-.13-.34-.36-.56-.67-.68-.31-.12-.61-.02-.9.3-3.71,4.58-7.6,9.03-11.68,13.36-1.65,1.8-3.29,3.6-4.92,5.4-1.26,1.41-2.53,2.81-3.8,4.2-1.49-.49-3.1-.34-4.81.46-1.71.8-3.08,1.94-4.1,3.4-.05.08-.08.15-.13.23-.89.62-1.77,1.26-2.67,1.87-2.14,1.45-3.64,2.35-4.5,2.69-.86.34-1.58.51-2.17.49-.58-.02-.82-.39-.71-1.11.18-.82.56-1.59,1.14-2.32.57-.73,1.18-1.41,1.82-2.04.29-.29.55-.57.81-.84.35-.43.45-.85.29-1.27-.16-.42-.45-.71-.86-.86-.41-.16-.83-.05-1.25.31-.56.53-1.26,1.3-2.1,2.3-.84,1.01-1.56,2.09-2.15,3.23-.6,1.15-.81,2.2-.63,3.14.18.94.69,1.56,1.54,1.86.85.3,1.89.27,3.12-.11,1.23-.37,2.82-1.27,4.78-2.69.04-.03.08-.06.11-.09.9-.66,1.78-1.34,2.65-2.03,0,.57.06,1.13.28,1.71.61,1.15,1.53,1.42,2.75.82,1.22-.6,2.44-1.52,3.64-2.74,1.21-1.22,2.09-2.17,2.66-2.86.17-.2.28-.33.34-.39,2.84-2.96,5.66-5.97,8.47-9.04-6.08,8.35-11.03,17.26-14.83,26.74-.08.29-.02.54.17.73.19.19.41.29.68.29s.47-.14.61-.4c.29-.6.57-1.21.86-1.81,4.07-7.37,8.15-14.48,12.25-21.34,4.09-6.86,8.69-13.48,13.77-19.88ZM383.61,187.43c-.36.39-.72.77-1.08,1.16-.96.97-1.62,1.53-1.99,1.68-.37.14-.52.03-.44-.33.08-.36.31-.8.7-1.33.39-.52.87-.96,1.44-1.31.57-.35,1.16-.45,1.78-.3-.13.14-.27.29-.4.44Z"/>
      <path class="cls-1" d="M443.63,160.94c-.31-.12-.61-.02-.9.3-3.71,4.58-7.6,9.03-11.68,13.36-1.65,1.8-3.29,3.6-4.92,5.4-1.26,1.41-2.53,2.81-3.8,4.2-1.49-.49-3.1-.34-4.81.46-.71.33-1.35.74-1.94,1.19-1.1.56-2.03,1.02-2.74,1.37-1.07.52-2.04.92-2.91,1.21-.88.29-1.58.34-2.1.15-.52-.19-.58-.84-.16-1.94.11-.31.09-.57-.07-.79-.16-.21-.37-.36-.65-.43-.28-.07-.54-.05-.79.06-.12.05-.23.11-.33.19-.08.05-.15.1-.23.14-.08-.25-.25-.47-.53-.65-1.05-.63-2.26-.82-3.63-.57-1.37.25-2.69.8-3.94,1.66-1.25.86-2.23,1.89-2.92,3.1-.69,1.2-.88,2.44-.57,3.72.34,1.13.91,1.72,1.72,1.79.81.07,1.75-.19,2.82-.8,1.07-.6,2.15-1.36,3.25-2.26,1.1-.9,2.1-1.76,3.01-2.59.03-.03.07-.07.11-.1.03,1.24.65,1.92,1.84,2.02,1.19.1,2.56-.19,4.1-.88.66-.3,1.29-.6,1.9-.91-.4,1.06-.41,2.13,0,3.21.61,1.15,1.53,1.42,2.75.82,1.22-.6,2.44-1.52,3.64-2.74,1.21-1.22,2.09-2.17,2.66-2.86.17-.2.28-.33.34-.39,2.84-2.96,5.66-5.97,8.47-9.04-6.08,8.35-11.03,17.26-14.83,26.74-.08.29-.02.54.17.73.19.19.41.29.68.29s.47-.14.61-.4c.29-.6.57-1.21.86-1.81,4.07-7.37,8.15-14.48,12.25-21.34,4.09-6.86,8.69-13.48,13.77-19.88.24-.35.3-.7.16-1.03-.13-.34-.36-.56-.67-.68ZM400.58,189.87c-1.18.93-2.04,1.55-2.59,1.86-.55.31-.9.45-1.04.41-.15-.04-.16-.35-.03-.95s.56-1.3,1.29-2.11c.73-.81,1.59-1.39,2.55-1.74.97-.35,1.89-.38,2.78-.09-.79.82-1.77,1.7-2.95,2.63ZM419.14,187.43c-.36.39-.72.77-1.08,1.16-.96.97-1.62,1.53-1.99,1.68s-.52.03-.44-.33.31-.8.7-1.33c.39-.52.87-.96,1.44-1.31s1.16-.45,1.77-.3c-.13.14-.27.29-.4.44Z"/>
      <rect class="cls-1" x="47.72" y="185.38" width="58.52" height="3.34"/>
      <rect class="cls-1" x="462.18" y="185.38" width="57.69" height="3.34"/>
    </g>
  </g>
</svg>