<?xml version="1.0" encoding="UTF-8"?>
<svg id="Capa_2" data-name="Capa 2" xmlns="http://www.w3.org/2000/svg" viewBox="0 0 64.84 59.95">
  <defs>
    <style>
      .cls-1 {
        fill: #871468;
      }
    </style>
  </defs>
  <g id="Capa_1-2" data-name="Capa 1">
    <path class="cls-1" d="M60.87,21.46h-17.12l1.62-16.98c.23-2.47-1.59-4.48-4.05-4.48h-9.04c-4.11,0-7.8,3.37-8.19,7.48l-1.33,13.97h-13.58c-4.14,0-7.94,3.34-8.48,7.43L.04,34.04c-.31,2.47,1.45,4.45,3.94,4.45h17.12l-1.62,16.98c-.23,2.47,1.59,4.48,4.05,4.48h9.04c4.11,0,7.8-3.37,8.19-7.48l1.33-13.97h13.55c4.17,0,7.97-3.34,8.5-7.4l.65-5.19c.31-2.44-1.47-4.45-3.94-4.45Z"/>
  </g>
</svg>
