<?xml version="1.0" encoding="UTF-8"?>
<svg width="32px" height="32px" viewBox="0 0 32 32" version="1.1" xmlns="http://www.w3.org/2000/svg">
    <title>Lavable</title>
    <g stroke="none" stroke-width="1" fill="none" fill-rule="evenodd">
        <circle fill="#F0B4E0" cx="16" cy="16" r="16"></circle>
        <path d="M16,8 C18.7614237,8 21,10.2385763 21,13 C21,14.5194342 20.2989902,15.8907686 19.2209708,16.8293244 C21.3763958,17.7104113 22.8674884,19.8151322 22.9944249,22.2498259 L23,22.5 C23,23.3284271 22.3284271,24 21.5,24 L10.5,24 C9.67157288,24 9,23.3284271 9,22.5 C9,19.7385763 11.2385763,17.5 14,17.5 L18,17.5 C19.6568542,17.5 21,16.1568542 21,14.5 L21,13 C21,11.3431458 19.6568542,10 18,10 L14,10 C12.3431458,10 11,11.3431458 11,13 L11,14.5 C11,14.7761424 10.7761424,15 10.5,15 C10.2238576,15 10,14.7761424 10,14.5 L10,13 C10,10.2385763 12.2385763,8 15,8 L16,8 Z M14,19.5 C12.3431458,19.5 11,20.8431458 11,22.5 L21,22.5 C21,20.8431458 19.6568542,19.5 18,19.5 L14,19.5 Z" fill="#870064" fill-rule="nonzero"></path>
    </g>
</svg>
